# xmcd
#
# Track frame offsets: 
#        150
#        10809
#        23552
#        37343
#        51354
#        64927
#        76452
#        89602
#        105901
#        119517
#        131543
#        147866
#        159081
#        171525
#        183011
#        193938
#        209525
#        221876
#        234477
#        245819
#        259256
#        272745
#        285865
#        297935
#        309737
#
# Disc length: 4272 seconds
#
# Revision: 0
# Processed by: cddbd v1.5.2PL0 Copyright (c) Steve Scherf et al.
# Submitted via: ExactAudioCopy v1.3
#
DISCID=7c10ae19
DTITLE=Waylon Jennings - Nashville Rebel_Disc 2 (1970-1974)
DYEAR=2006
DGENRE=Country
TTITLE0=The Taker
TTITLE1=Mississippi Woman
TTITLE2=Lovin' Her Was Easier (Than Anything I'll Ever Do Again)
TTITLE3=(Don't Let The Sun Set On You) Tulsa
TTITLE4=Sweet Dream Woman
TTITLE5=Ladies Love Outlaws
TTITLE6=Under Your Spell Again (with Jessi Colter)
TTITLE7=Lonesome, On'ry And Mean
TTITLE8=Pretend I Never Happened
TTITLE9=You Can Have Her
TTITLE10=Honky Tonk Heroes
TTITLE11=Black Rose
TTITLE12=We Had It All
TTITLE13=You Ask Me To
TTITLE14=This Time
TTITLE15=It's Not Supposed To Be That Way
TTITLE16=Slow Rollin' Low
TTITLE17=I'm A Ramblin' Man
TTITLE18=Rainy Day Woman
TTITLE19=Amanda
TTITLE20=Bob Wills Is Still The King
TTITLE21=Are You Sure Hank Done It This Way
TTITLE22=Waymore's Blues
TTITLE23=The Door Is Always Open
TTITLE24=Dreaming My Dreams With You
EXTD=
EXTT0=
EXTT1=
EXTT2=
EXTT3=
EXTT4=
EXTT5=
EXTT6=
EXTT7=
EXTT8=
EXTT9=
EXTT10=
EXTT11=
EXTT12=
EXTT13=
EXTT14=
EXTT15=
EXTT16=
EXTT17=
EXTT18=
EXTT19=
EXTT20=
EXTT21=
EXTT22=
EXTT23=
EXTT24=
PLAYORDER=
